<?xml version="1.0" encoding="UTF-8"?><svg id="b" xmlns="http://www.w3.org/2000/svg" width="1024" height="1024" viewBox="0 0 1024 1024"><rect width="1024" height="1024" rx="176.45" ry="176.45" fill="#f97316"/><path d="M358.93,773.24c46.03-52.17,269.26-306.01,269.26-306.01l-23.03-23.14-24.45-24.57-23.03-23.14s-254.97,221.93-307.38,267.7c-24.1-9.46-52.56-4.53-72.1,14.9-26.35,26.22-26.46,68.83-.24,95.19,14.01,14.08,32.69,20.59,51.08,19.67-1.01,18.38,5.41,37.1,19.41,51.18,26.22,26.35,68.83,26.46,95.19.24,19.53-19.43,24.61-47.87,15.27-72.02Z" fill="#fff"/><path d="M877.21,380.37l-75.19-75.57c-.2-19.04-8.77-39.67-25.08-56.07-16.32-16.4-36.9-25.07-55.94-25.37l-75.19-75.57c-21.19-21.3-55.64-21.39-76.95-.2l-76,75.61c-21.3,21.19-21.39,55.64-.2,76.95l231.39,232.57c21.19,21.3,55.64,21.39,76.95.2l76-75.61c21.3-21.19,21.39-55.64.2-76.95Z" fill="#fff"/></svg>